<?xml version="1.0" standalone="no"?>
<!DOCTYPE svg PUBLIC "-//W3C//DTD SVG 20010904//EN"
 "http://www.w3.org/TR/2001/REC-SVG-20010904/DTD/svg10.dtd">
<svg version="1.0" xmlns="http://www.w3.org/2000/svg"
 width="792.000000pt" height="792.000000pt" viewBox="0 0 792.000000 792.000000"
 preserveAspectRatio="xMidYMid meet">
<metadata>
Created by potrace 1.14, written by Peter Selinger 2001-2017
</metadata>
<g transform="translate(0.000000,792.000000) scale(0.100000,-0.100000)"
fill="#000000" stroke="none">
<path d="M3112 6815 c-129 -36 -316 -144 -372 -215 -79 -99 -81 -251 -4 -331
l25 -26 -61 30 c-50 25 -78 32 -145 35 -91 5 -138 -6 -200 -46 -33 -21 -50
-25 -102 -23 -49 2 -74 -3 -117 -24 -65 -31 -210 -141 -280 -213 l-48 -50 -46
19 c-75 32 -173 45 -239 31 -70 -14 -165 -59 -218 -101 l-40 -33 -15 23 c-55
84 -135 141 -234 165 -134 34 -267 -7 -438 -133 -51 -38 -149 -104 -218 -148
-68 -44 -142 -98 -164 -120 -114 -116 -124 -320 -20 -388 29 -20 34 -28 39
-82 4 -33 5 -206 3 -385 l-3 -325 -28 -42 c-72 -106 -75 -239 -7 -317 17 -18
42 -39 57 -45 l28 -11 0 -204 0 -205 -25 -5 c-82 -16 -135 -95 -134 -198 0
-57 6 -78 37 -141 44 -86 52 -140 63 -440 6 -188 6 -192 -15 -211 -12 -11 -28
-43 -37 -72 -28 -99 6 -200 113 -329 125 -151 371 -305 490 -305 42 0 50 -4
115 -65 57 -54 94 -78 216 -137 109 -53 161 -72 201 -76 44 -4 64 -13 115 -52
173 -130 309 -167 443 -120 l56 19 77 -72 c86 -81 150 -119 235 -142 107 -28
204 -14 284 41 l34 23 51 -46 c144 -130 295 -179 440 -142 38 9 49 8 84 -10
60 -31 153 -50 273 -57 119 -8 189 4 244 42 l35 23 73 -34 c190 -91 366 -64
507 76 82 83 122 165 122 256 0 37 -1 75 -3 83 -3 11 7 16 42 18 46 3 47 2 75
-45 101 -174 338 -312 534 -313 139 0 305 75 421 190 l75 75 59 -23 c193 -78
375 -34 538 128 62 63 84 79 100 74 41 -13 172 -5 227 14 84 29 210 96 268
141 51 41 112 129 112 164 0 17 6 18 58 10 163 -23 284 23 430 163 37 36 78
67 92 71 86 21 274 149 338 231 92 116 116 269 58 355 -21 30 -24 51 -30 168
-22 429 -35 490 -127 582 l-59 59 11 87 c7 54 9 141 5 233 l-6 147 36 11 c121
40 181 185 138 330 -15 51 -15 55 5 96 34 67 44 145 32 239 -23 169 -71 301
-171 469 -167 280 -319 398 -496 383 l-62 -4 -5 136 c-3 79 -12 155 -20 182
-38 117 -117 225 -202 274 -49 29 -148 53 -239 58 l-68 4 -37 49 c-39 52 -120
107 -186 126 -57 17 -290 16 -339 -1 -49 -17 -115 -76 -133 -118 -7 -18 -13
-51 -13 -73 0 -38 -1 -40 -32 -40 -44 -1 -137 -40 -185 -78 l-39 -30 -23 34
c-30 43 -140 147 -191 179 -60 38 -145 58 -211 51 -49 -5 -66 -2 -111 19 -76
36 -160 34 -280 -5 -51 -17 -113 -41 -138 -54 l-45 -24 -57 54 c-192 177 -478
177 -676 -1 l-52 -47 -50 44 c-27 24 -103 72 -168 108 l-119 64 -1 58 c-1 63
-28 137 -65 176 -57 61 -167 85 -265 57z m176 -30 c80 -34 123 -103 130 -210
l4 -71 102 -54 c116 -61 165 -94 219 -143 l38 -35 50 49 c29 29 84 65 135 91
77 38 94 42 175 46 150 7 274 -41 377 -147 l39 -41 69 34 c162 80 307 101 391
58 23 -12 44 -26 48 -31 3 -6 17 -6 36 1 45 15 147 6 199 -20 63 -30 151 -107
213 -185 l51 -65 40 35 c50 46 130 82 188 85 l46 3 5 58 c7 73 41 128 100 159
38 21 55 23 187 23 113 0 156 -4 196 -18 59 -20 125 -73 159 -127 l23 -37 89
-6 c155 -12 228 -40 302 -116 95 -98 135 -223 134 -418 l-1 -131 29 10 c54 19
168 6 234 -26 179 -88 406 -446 459 -726 27 -142 18 -242 -28 -305 -22 -30
-22 -31 -5 -75 23 -58 25 -170 3 -216 -23 -49 -72 -92 -124 -111 l-46 -16 1
-201 c0 -111 -3 -226 -8 -256 l-7 -55 40 -25 c53 -32 96 -99 114 -180 9 -36
22 -176 29 -311 13 -233 15 -247 38 -278 21 -28 24 -44 24 -114 0 -67 -5 -91
-24 -132 -51 -104 -239 -258 -362 -296 -45 -14 -68 -29 -106 -70 -61 -67 -180
-145 -251 -165 -58 -17 -164 -14 -217 6 -19 7 -27 6 -29 -3 -33 -113 -73 -165
-182 -233 -115 -72 -214 -107 -304 -108 -41 -1 -91 2 -110 7 -34 7 -37 5 -75
-44 -51 -64 -153 -142 -224 -169 -115 -44 -263 -34 -368 24 l-42 24 -21 -33
c-32 -51 -129 -136 -198 -173 -204 -109 -389 -97 -592 39 -97 65 -130 99 -181
190 l-34 60 -70 -7 c-38 -3 -71 -7 -73 -9 -2 -1 2 -24 9 -49 34 -137 -68 -315
-226 -392 -54 -26 -70 -29 -160 -29 -108 0 -161 14 -245 66 l-44 28 -33 -29
c-49 -44 -100 -53 -243 -47 -132 6 -199 20 -273 57 -40 20 -48 21 -83 9 -56
-18 -170 -14 -230 9 -64 24 -157 87 -213 145 l-44 46 -36 -29 c-49 -40 -112
-60 -185 -60 -123 0 -229 53 -344 172 l-64 65 -41 -21 c-51 -25 -151 -33 -222
-17 -61 14 -181 82 -248 141 -36 32 -53 41 -71 36 -35 -9 -107 16 -253 89
-106 52 -145 77 -195 127 -61 59 -65 61 -118 63 -69 2 -144 35 -271 120 -256
171 -385 413 -284 534 24 28 25 34 25 188 0 88 -5 218 -10 289 -10 118 -14
135 -47 198 -80 155 -46 285 83 317 l44 11 -7 52 c-5 28 -7 128 -7 223 l1 172
-28 12 c-36 14 -86 71 -95 104 -3 14 -4 54 -2 89 3 50 11 75 41 125 l37 62 0
397 0 397 -32 15 c-57 27 -73 61 -73 153 1 142 31 180 273 342 103 69 218 147
255 174 98 68 152 86 267 86 76 0 104 -4 142 -22 55 -25 129 -91 160 -142 12
-20 22 -37 24 -39 1 -2 30 19 65 45 87 66 159 96 242 101 73 5 138 -8 202 -38
l40 -19 76 72 c165 157 314 240 397 220 32 -8 42 -5 84 23 110 74 260 64 396
-26 l32 -22 0 30 c0 20 -12 45 -35 72 -49 59 -62 107 -47 178 21 100 89 171
237 249 149 78 263 101 343 68z"/>
<path d="M3118 6696 c-136 -48 -267 -136 -298 -201 -34 -70 -25 -117 33 -167
l31 -26 4 -170 4 -169 -25 -5 c-22 -4 -27 1 -48 51 -27 66 -88 135 -144 163
-25 13 -67 23 -111 26 -59 4 -77 1 -115 -18 -24 -13 -59 -39 -76 -58 l-33 -36
-23 22 c-30 28 -76 28 -130 1 -111 -57 -287 -217 -313 -284 l-16 -44 -57 43
c-75 57 -112 71 -196 71 -102 0 -182 -41 -291 -151 l-83 -82 -11 50 c-34 161
-161 261 -309 243 -80 -10 -142 -39 -251 -120 -52 -39 -147 -104 -210 -144
-63 -40 -130 -87 -149 -105 -44 -41 -71 -100 -71 -157 0 -55 25 -83 73 -84
l32 0 0 -455 0 -455 -37 -59 c-32 -50 -38 -69 -38 -113 0 -43 5 -59 24 -78 25
-25 83 -41 117 -32 17 5 20 2 15 -16 -33 -136 -31 -395 4 -551 11 -50 20 -93
20 -98 0 -4 -24 4 -52 17 -65 30 -109 32 -133 5 -26 -29 -17 -116 18 -169 15
-22 31 -59 36 -83 16 -69 31 -310 31 -483 l0 -161 -30 -26 c-39 -34 -41 -88
-5 -158 67 -132 277 -305 432 -355 49 -16 55 -16 77 -1 16 10 26 27 28 48 4
37 28 52 28 16 0 -44 46 -123 101 -172 60 -55 301 -176 348 -176 15 0 36 9 45
19 18 19 20 18 95 -58 92 -93 182 -143 271 -149 76 -6 124 11 176 63 l42 43
19 -42 c26 -60 158 -187 229 -222 49 -24 71 -29 135 -29 66 0 81 4 118 28 117
77 109 210 -20 320 -24 21 -54 40 -66 43 -20 5 -23 12 -23 56 0 36 4 49 13 46
6 -3 49 -15 94 -28 l81 -23 7 -96 c12 -176 43 -249 147 -346 127 -120 250
-155 369 -104 l50 22 22 -21 c54 -51 176 -81 325 -82 114 0 157 26 171 107 l6
32 60 -46 c33 -25 89 -59 125 -77 57 -27 76 -31 150 -31 102 0 139 16 217 97
59 60 83 109 83 167 0 56 -13 85 -65 140 l-46 49 43 6 c24 4 90 11 148 16 58
5 125 11 150 14 l45 6 32 -68 c59 -121 155 -207 303 -272 46 -20 72 -24 155
-25 121 0 161 15 252 97 34 30 78 65 97 79 33 21 69 80 90 142 5 16 13 13 57
-27 88 -80 208 -110 319 -82 120 31 213 111 306 264 1 2 19 -5 41 -16 89 -45
184 -37 318 29 160 79 215 141 215 245 0 60 -19 91 -63 102 -28 7 -33 13 -39
53 -3 24 -7 78 -7 120 l-1 76 47 34 c26 19 61 40 78 47 16 7 51 36 77 65 l47
52 1 -133 c0 -112 -3 -139 -19 -170 -28 -54 -35 -105 -21 -147 17 -53 48 -68
138 -69 67 -1 84 3 128 27 78 43 162 114 192 160 23 36 33 42 65 45 56 4 113
32 203 100 119 90 165 157 167 246 1 42 -4 59 -25 87 -25 33 -26 41 -37 254
-7 121 -16 253 -21 293 -16 119 -59 180 -141 202 -22 6 -39 14 -39 18 0 4 7
43 16 87 29 138 23 405 -12 550 -5 18 -1 20 45 17 96 -7 162 37 176 116 8 48
-21 142 -70 225 -35 58 -35 68 -1 42 88 -66 124 83 71 291 -44 173 -166 393
-289 522 -96 102 -207 144 -293 111 -33 -12 -88 -62 -115 -104 -19 -30 -19
-29 -13 245 6 235 5 281 -9 318 -34 94 -104 148 -232 178 -79 18 -187 21 -226
6 -25 -11 -27 -9 -42 35 -38 111 -120 164 -266 171 -105 5 -190 -11 -218 -41
-48 -53 -40 -116 23 -188 35 -38 45 -57 45 -84 0 -42 -9 -44 -41 -9 -35 39
-116 74 -169 74 -25 0 -63 -9 -85 -19 -53 -24 -121 -99 -153 -169 l-26 -57 -8
37 c-16 77 -68 161 -152 243 -44 44 -99 89 -121 100 -56 27 -144 27 -182 -1
l-28 -21 -24 30 c-51 62 -136 73 -257 32 -143 -48 -214 -97 -214 -148 0 -13
-13 -1 -38 39 -155 238 -426 282 -628 101 -48 -43 -84 -106 -100 -172 l-7 -30
-7 25 c-16 56 -52 110 -108 162 -111 102 -206 130 -299 88 l-43 -19 0 147 c0
169 -11 205 -70 234 -47 24 -82 22 -162 -6z m97 -281 c0 -143 4 -266 8 -272
16 -26 37 -11 66 45 32 63 81 115 124 131 70 27 165 -1 210 -61 53 -69 59
-102 69 -413 5 -159 11 -300 13 -312 3 -12 16 -34 28 -50 30 -36 38 -67 25
-103 -12 -36 -43 -56 -115 -75 -67 -18 -206 -20 -252 -4 -56 20 -65 65 -29
151 21 49 23 69 23 258 0 179 -2 211 -19 247 -21 47 -54 67 -90 53 -50 -19
-56 -50 -56 -290 0 -216 1 -222 25 -270 14 -27 25 -63 25 -81 0 -44 -52 -93
-121 -113 -64 -20 -192 -31 -241 -22 -82 15 -101 83 -48 166 16 26 35 71 40
101 15 78 23 542 13 692 l-10 129 -36 33 c-67 61 -45 141 54 207 107 71 216
118 264 115 l30 -2 0 -260z m1066 -81 c42 -12 66 -28 110 -73 84 -86 90 -109
98 -401 4 -156 11 -253 18 -266 7 -12 24 -29 39 -39 24 -15 26 -22 22 -65 -17
-178 -224 -268 -311 -135 -26 42 -45 44 -78 9 -75 -82 -232 -83 -306 -3 -63
69 -90 219 -58 322 40 128 140 205 277 215 40 2 79 9 86 14 14 12 16 133 2
192 -11 50 -40 80 -68 72 -12 -4 -35 -33 -53 -64 -17 -31 -43 -73 -56 -94 -44
-66 -118 -75 -148 -18 -48 92 26 234 157 301 98 51 176 60 269 33z m1983 -24
c21 -5 48 -18 60 -30 21 -20 21 -28 26 -578 l5 -557 33 -56 c42 -74 45 -140 7
-165 -37 -24 -100 -28 -184 -10 -94 20 -121 37 -121 77 0 25 -12 62 -26 78 -2
2 -20 -8 -39 -23 -54 -42 -91 -49 -154 -30 -194 56 -355 458 -297 742 31 153
92 252 181 293 80 37 160 18 246 -59 26 -23 49 -38 53 -35 3 3 6 34 6 68 0 58
-2 64 -45 114 -36 42 -45 60 -45 90 0 66 45 88 185 90 39 0 88 -4 109 -9z
m-1292 -62 c7 -13 15 -50 18 -83 4 -50 8 -60 23 -60 10 0 31 18 46 40 42 63
87 88 143 81 122 -14 211 -117 238 -276 6 -36 14 -177 19 -315 7 -233 9 -253
31 -295 34 -66 41 -100 30 -136 -20 -61 -96 -67 -266 -24 -94 24 -130 49 -146
102 -11 38 -10 44 18 95 l29 54 0 202 c0 172 -3 209 -18 250 -10 26 -27 52
-37 57 -34 18 -69 12 -87 -17 -15 -23 -18 -56 -21 -223 -4 -190 -3 -199 22
-272 14 -41 26 -86 26 -99 0 -69 -76 -96 -218 -79 -141 18 -196 52 -208 131
-5 27 0 41 24 72 26 32 31 49 37 120 4 45 5 154 3 243 l-3 161 -32 37 c-85 96
-47 160 135 222 117 41 176 44 194 12z m-2363 -93 c43 -22 79 -70 96 -128 14
-45 34 -365 35 -553 0 -29 9 -54 30 -85 53 -78 34 -151 -49 -193 -65 -33 -193
-66 -256 -66 -91 0 -104 41 -55 175 19 53 22 79 22 240 0 188 -11 258 -44 279
-24 15 -66 -2 -92 -37 -20 -26 -21 -43 -24 -246 -3 -214 -3 -219 22 -278 30
-73 24 -112 -26 -160 -53 -51 -215 -113 -297 -113 -72 0 -93 77 -43 159 l27
46 3 238 4 237 -36 32 c-31 27 -36 38 -36 73 0 55 37 102 155 200 165 137 206
145 215 42 3 -30 8 -59 12 -62 15 -15 37 6 60 57 33 71 73 117 123 139 49 22
116 24 154 4z m4143 -55 c21 -6 50 -22 65 -35 l28 -23 0 -594 0 -593 35 -48
c25 -35 35 -59 35 -87 0 -56 -20 -73 -75 -68 -55 6 -244 95 -295 139 -45 40
-75 97 -75 144 0 31 4 38 29 46 16 6 33 18 37 27 13 27 17 693 5 768 -7 47
-21 85 -51 133 -31 53 -40 77 -40 113 0 40 5 50 32 73 32 27 35 27 133 22 55
-3 117 -10 137 -17z m-5744 -207 c73 -54 97 -127 96 -293 0 -137 -15 -209 -64
-316 -67 -148 -161 -250 -295 -322 l-90 -47 0 -134 c0 -129 1 -134 24 -150 58
-40 71 -58 64 -93 -10 -53 -32 -89 -93 -149 -100 -97 -283 -198 -337 -184 -48
12 -43 80 14 176 l38 63 3 391 c1 214 -1 424 -5 465 l-8 75 -42 3 c-52 4 -68
27 -58 81 13 69 41 98 194 198 80 52 185 124 233 160 48 36 109 73 135 84 62
25 152 21 191 -8z m655 -37 c41 -17 71 -50 93 -101 14 -33 18 -85 23 -281 6
-254 9 -270 54 -276 54 -8 0 -182 -84 -273 -74 -80 -144 -98 -189 -50 -13 14
-29 25 -36 25 -6 0 -26 -22 -44 -50 -59 -91 -146 -149 -226 -150 -83 0 -129
76 -128 210 1 184 114 359 289 449 46 24 67 41 71 58 10 40 -1 190 -15 207
-33 39 -75 4 -111 -90 -47 -128 -104 -204 -151 -204 -33 0 -53 44 -46 103 11
87 69 190 161 283 128 129 248 179 339 140z m5608 -407 c62 -31 151 -126 199
-211 79 -143 129 -349 109 -452 -12 -65 -22 -75 -57 -55 -15 9 -87 53 -161 98
-73 44 -138 81 -143 81 -18 0 -3 -83 25 -144 15 -32 40 -75 57 -96 35 -44 104
-75 147 -67 64 13 66 12 85 -20 30 -50 34 -131 8 -171 -66 -105 -244 -71 -378
73 -268 286 -307 869 -67 981 40 19 121 11 176 -17z m-3261 -231 c0 -3 -28
-29 -63 -57 -88 -71 -217 -218 -292 -331 -110 -166 -184 -328 -234 -515 -14
-54 -61 -116 -106 -139 -39 -22 60 -25 -1055 34 -96 6 -305 17 -465 25 -263
14 -312 19 -534 60 -134 25 -246 47 -248 49 -3 2 7 27 21 55 17 32 33 51 44
51 9 0 154 -31 322 -69 168 -38 306 -68 306 -67 1 0 5 19 8 42 l7 41 -293 77
c-161 43 -295 80 -297 82 -2 2 11 26 29 54 22 35 38 49 48 45 8 -3 132 -42
275 -86 263 -81 276 -83 277 -42 0 6 2 18 5 26 5 10 -31 27 -144 67 l-149 54
42 38 c22 20 44 37 49 38 4 0 58 -20 119 -45 62 -25 115 -45 118 -45 7 0 33
70 28 75 -1 2 -28 15 -58 28 -30 14 -47 26 -37 26 10 1 39 11 65 24 26 13 54
22 63 20 10 -3 21 7 29 26 6 17 11 33 11 36 -1 3 6 19 15 35 17 28 18 28 48
13 94 -49 357 16 444 110 23 24 24 24 73 10 41 -12 65 -13 137 -3 115 15 236
56 271 91 28 27 28 28 72 12 115 -40 366 2 413 69 13 18 15 17 80 -7 55 -21
84 -25 169 -25 120 0 193 18 239 59 l32 28 58 -31 c32 -17 58 -34 58 -38z
m2540 -510 c0 -8 -49 -23 -54 -17 -1 2 -12 21 -23 41 l-22 37 22 3 c15 2 31
-7 49 -27 15 -16 27 -33 28 -37z m149 -100 c40 -24 62 -48 58 -62 -2 -5 -40
-19 -86 -32 l-82 -22 -20 45 c-10 24 -19 48 -19 52 0 7 80 37 104 40 5 1 25
-9 45 -21z m146 -218 c14 -27 25 -53 25 -58 0 -7 -173 -42 -209 -42 -9 0 -45
100 -38 106 2 1 167 39 189 43 4 0 19 -21 33 -49z m-5768 -175 l42 -7 -42 -54
c-41 -52 -44 -54 -91 -54 l-49 0 7 39 c3 22 11 52 16 66 9 24 15 26 43 22 17
-3 51 -9 74 -12z m5852 -49 c18 -73 18 -73 -56 -80 -38 -4 -91 -9 -119 -12
l-52 -6 -7 48 c-3 27 -7 54 -8 59 -2 10 122 31 194 34 35 1 37 -1 48 -43z
m-5933 -188 c2 -2 0 -29 -3 -61 l-6 -57 -38 0 -39 0 0 43 c0 23 3 53 7 66 5
20 10 22 41 18 19 -4 36 -8 38 -9z m5973 -105 c1 -21 -3 -22 -118 -25 l-120
-3 -5 29 c-8 40 -7 86 2 87 4 1 57 4 117 8 l110 6 7 -40 c3 -22 7 -50 7 -62z
m-5344 77 c116 -5 223 -14 238 -19 34 -13 36 -51 5 -98 -29 -42 -66 -59 -145
-67 l-63 -6 0 45 0 45 -185 0 c-102 0 -185 4 -185 9 0 26 86 101 115 101 6 0
105 -5 220 -10z m-575 -270 c16 -33 30 -62 30 -65 0 -3 -31 -5 -69 -5 l-69 0
-11 50 c-15 70 -16 68 32 73 23 2 45 4 49 5 4 1 21 -25 38 -58z m5906 46 c1 0
-2 -27 -8 -58 l-10 -58 -63 0 c-34 0 -83 3 -109 6 l-46 7 0 52 c0 28 2 54 5
57 5 4 226 -1 231 -6z m-3580 -198 c39 -30 43 -37 81 -153 52 -153 97 -244
226 -455 160 -262 419 -489 711 -625 74 -34 97 -49 92 -61 -3 -8 -9 -57 -12
-108 l-7 -93 -114 -12 c-63 -7 -116 -11 -118 -9 -1 2 -10 18 -19 36 -37 71
-172 189 -261 227 -56 23 -171 22 -227 -3 -65 -29 -129 -87 -170 -155 l-38
-61 0 210 c0 224 -6 266 -46 314 -39 46 -87 56 -192 40 -254 -38 -351 -137
-276 -283 15 -28 15 -29 -1 -23 -9 3 -25 6 -34 6 -15 0 -19 11 -23 64 -3 35
-14 78 -24 95 -22 38 -81 68 -151 77 l-52 6 -136 -103 c-117 -88 -139 -101
-153 -91 -9 7 -38 22 -64 34 -45 20 -48 24 -53 67 -14 119 -55 166 -169 196
-57 14 -61 14 -93 -5 -19 -11 -40 -20 -48 -20 -7 0 -51 -22 -96 -50 -45 -27
-86 -50 -91 -50 -11 0 -88 51 -88 59 0 3 44 30 98 60 131 73 125 67 105 105
-8 17 -17 32 -18 34 -2 2 -66 -28 -143 -67 l-140 -70 -40 29 c-22 16 -42 33
-45 38 -3 4 67 41 156 82 89 40 163 74 165 75 3 3 -27 75 -32 75 -2 0 -86 -34
-187 -75 -101 -41 -188 -75 -194 -75 -17 1 -87 72 -78 80 4 4 98 40 208 79
110 40 203 76 208 80 10 10 -12 71 -26 71 -7 0 -118 -34 -247 -75 l-235 -75
-37 42 c-21 24 -38 46 -38 49 0 3 120 38 268 79 147 40 268 74 269 75 8 5 -20
75 -30 75 -7 0 -139 -29 -295 -66 -156 -36 -284 -64 -286 -62 -1 1 -14 22 -29
45 -15 24 -27 47 -27 51 0 5 123 33 273 62 149 29 288 55 307 59 33 7 35 9 34
47 l0 40 325 18 c179 10 504 29 721 41 217 12 443 23 501 24 96 1 109 -1 135
-21z m-2168 -37 c53 -36 96 -43 240 -37 l137 6 -280 -44 c-154 -25 -283 -41
-286 -38 -12 14 -42 103 -36 109 7 6 103 20 160 22 24 0 49 -6 65 -18z m5615
10 c38 -5 71 -11 73 -14 3 -2 -5 -29 -16 -59 l-20 -55 -86 13 c-47 7 -88 15
-90 17 -3 2 1 27 7 56 12 58 10 57 132 42z m-6407 -45 c163 -79 244 -158 244
-238 0 -27 -6 -41 -22 -53 -20 -13 -23 -26 -26 -94 -4 -81 7 -121 33 -121 8 0
32 26 55 58 35 48 41 62 36 92 -18 112 -18 116 -2 129 26 21 87 8 190 -43 141
-68 186 -116 186 -194 0 -48 -23 -59 -80 -39 -26 9 -52 17 -57 17 -17 0 -103
-80 -118 -109 -9 -19 -11 -38 -6 -62 15 -64 296 -621 345 -684 25 -32 52 -76
58 -98 14 -47 1 -91 -28 -95 -24 -3 -272 117 -296 145 -10 10 -53 96 -97 191
-127 275 -166 336 -185 286 -17 -46 2 -136 42 -196 18 -28 26 -54 26 -86 1
-45 -1 -47 -28 -50 -67 -8 -318 153 -356 229 -29 55 -26 98 7 125 27 21 28 26
31 137 5 131 -13 456 -29 543 -6 33 -23 79 -39 104 -34 56 -43 91 -30 124 14
37 41 33 146 -18z m7035 24 c51 -28 66 -102 84 -418 15 -249 15 -256 41 -289
23 -30 26 -42 22 -88 -3 -38 -13 -66 -34 -96 -61 -88 -245 -210 -285 -188 -31
16 -33 54 -9 136 21 70 22 90 18 272 -5 213 -17 271 -57 271 -26 0 -69 -53
-77 -95 -3 -19 -4 -125 -2 -237 3 -184 6 -208 26 -252 12 -27 22 -60 22 -75
-1 -76 -89 -174 -212 -236 -84 -42 -112 -44 -134 -10 -19 29 -15 64 15 145 17
47 20 78 20 210 0 85 -4 188 -8 228 -6 67 -10 76 -39 98 -71 56 -31 142 174
372 89 98 109 96 116 -12 2 -22 8 -41 14 -43 12 -4 21 14 58 114 55 146 168
235 247 193z m-726 -195 c86 -13 85 -13 41 -83 l-25 -40 -64 16 -65 15 14 41
c8 23 16 47 19 54 3 7 13 11 22 9 10 -3 36 -8 58 -12z m-105 -200 c19 -7 29
-14 22 -14 -7 -1 -31 -18 -55 -40 -57 -52 -74 -44 -42 20 28 54 26 53 75 34z
m89 -55 c23 -12 48 -73 56 -137 13 -100 -41 -263 -105 -317 -41 -34 -71 -33
-115 5 -46 41 -58 30 -63 -59 -5 -94 13 -309 28 -327 7 -8 23 -15 36 -15 71 0
69 -135 -4 -206 -60 -58 -247 -144 -314 -144 -72 0 -89 83 -38 185 l30 60 0
197 c0 108 -4 208 -10 223 -5 14 -20 29 -33 34 -40 15 -48 65 -22 127 40 95
267 296 298 265 5 -5 12 -33 15 -62 9 -72 28 -70 56 7 31 84 56 125 96 151 36
25 61 28 89 13z m-1589 -269 c49 -17 58 -18 77 -5 58 37 100 5 134 -105 63
-203 11 -408 -100 -399 -34 3 -38 7 -77 86 -48 95 -92 147 -141 163 -73 24
-136 -12 -176 -99 -19 -41 -22 -64 -21 -172 1 -186 47 -325 134 -404 89 -80
222 -41 310 92 42 63 65 67 87 15 29 -72 -11 -271 -65 -320 -189 -172 -278
-214 -402 -191 -162 30 -291 177 -356 408 -29 100 -27 348 4 453 42 147 102
257 191 350 126 133 263 177 401 128z m859 -134 c76 -50 124 -154 143 -307 40
-321 -186 -690 -433 -708 -168 -12 -269 141 -270 408 0 184 45 324 148 460
120 160 297 223 412 147z m-4414 -17 c145 -70 265 -267 265 -437 0 -69 -12
-103 -35 -103 -12 0 -230 77 -297 105 -15 6 -18 2 -18 -24 0 -71 85 -184 153
-202 32 -9 48 -7 84 6 52 20 67 16 89 -26 22 -43 14 -112 -16 -144 -57 -61
-160 -69 -264 -22 -167 77 -306 339 -306 577 0 106 20 175 67 230 74 85 157
97 278 40z m576 20 c42 -12 49 -31 49 -141 0 -39 5 -71 11 -75 6 -3 43 -15 81
-25 39 -10 75 -22 80 -27 13 -13 21 -145 9 -161 -8 -13 -19 -13 -83 1 -40 9
-77 13 -81 9 -4 -4 -4 -91 1 -192 7 -134 13 -193 25 -215 29 -56 43 -61 114
-39 47 15 74 -86 39 -152 -9 -18 -36 -44 -59 -58 -87 -51 -212 -23 -291 65
-83 93 -100 168 -114 509 l-7 184 -50 17 c-44 15 -51 21 -58 53 -16 65 -6 76
141 169 75 47 142 87 147 87 6 1 26 -4 46 -9z m1233 -62 c13 -18 16 -56 16
-208 0 -182 14 -584 26 -750 6 -79 8 -86 39 -115 39 -37 48 -68 30 -110 -19
-46 -65 -59 -179 -52 -111 8 -178 29 -211 69 -39 46 -37 89 6 129 l29 27 0
199 c0 248 -15 462 -36 511 -8 20 -26 48 -38 62 -100 107 -36 200 167 244 96
21 133 20 151 -6z m-567 -60 c6 -7 13 -55 15 -106 3 -51 8 -95 11 -98 3 -3 41
-10 83 -15 43 -6 82 -15 86 -22 5 -7 7 -48 6 -92 l-3 -80 -84 4 -84 3 6 -185
c9 -258 32 -310 119 -271 40 18 41 18 59 -5 13 -15 19 -39 19 -71 0 -166 -250
-232 -377 -99 -78 83 -97 172 -111 509 l-7 185 -49 12 c-59 15 -67 25 -64 83
l3 45 140 107 c124 95 145 107 181 107 23 1 46 -5 51 -11z m1124 -263 c62 -22
106 -59 149 -126 49 -76 74 -167 68 -253 -6 -104 -12 -107 -203 -114 -119 -4
-158 -8 -162 -19 -12 -32 9 -86 52 -129 39 -39 50 -44 88 -44 45 0 90 23 136
69 27 27 54 15 70 -30 16 -46 14 -68 -13 -124 -66 -143 -242 -209 -379 -141
-210 102 -300 482 -175 731 78 154 230 229 369 180z"/>
<path d="M4111 5725 c-11 -15 -23 -42 -27 -61 -18 -97 48 -187 90 -121 18 28
28 121 18 167 -10 47 -50 54 -81 15z"/>
<path d="M5930 5778 c-32 -53 -42 -131 -38 -282 3 -130 5 -145 31 -198 44 -90
99 -93 125 -7 18 57 21 367 4 425 -27 93 -85 122 -122 62z"/>
<path d="M698 5614 c-15 -8 -32 -23 -38 -34 -14 -25 -14 -417 0 -425 18 -11
74 29 106 77 66 98 73 310 13 374 -26 27 -43 29 -81 8z"/>
<path d="M1451 5224 c-70 -50 -84 -246 -16 -233 40 8 58 52 59 143 1 96 -8
114 -43 90z"/>
<path d="M7223 5243 c-22 -33 -24 -103 -4 -127 24 -28 100 -69 118 -62 13 5
15 16 10 60 -6 59 -26 105 -59 136 -29 27 -44 25 -65 -7z"/>
<path d="M5717 2385 c-41 -40 -43 -120 -11 -290 39 -201 70 -250 123 -194 28
30 34 89 21 193 -31 249 -76 348 -133 291z"/>
<path d="M1486 2464 c-21 -20 -30 -58 -22 -90 7 -27 71 -63 114 -64 19 0 22 5
22 36 0 44 -25 99 -54 119 -26 19 -41 19 -60 -1z"/>
<path d="M3791 2064 c-26 -33 -37 -89 -22 -120 9 -21 17 -24 60 -24 67 0 85
19 77 79 -11 82 -74 117 -115 65z"/>
</g>
</svg>
