<svg id="Layer_1" data-name="Layer 1" xmlns="http://www.w3.org/2000/svg" xmlns:xlink="http://www.w3.org/1999/xlink" width= "1600" height="1000" viewBox="0 0 1600 1000" preserveAspectRatio="xMinYMid">><defs><style>.cls-1{fill:url(#radial-gradient);}</style><radialGradient id="radial-gradient" cx="-431.23" cy="-844.29" r="615.22" gradientTransform="matrix(0, 1.4, 2.59, 0, 2986.7, 727.12)" gradientUnits="userSpaceOnUse"><stop offset="0" stop-color="#ee393b" stop-opacity="0.6"/><stop offset="0.51" stop-color="#ee393b" stop-opacity="0.6"/><stop offset="1" stop-color="#fff" stop-opacity="0"/></radialGradient></defs><title>Artboard 1</title><path class="cls-1" d="M-262,125.72c0-6.64,0-13.17.17-19.71l1037.91,6.06L-261.85,144.39Q-262,135.08-262,125.72Zm1.44,57L776.08,112.07l-1034,109c-1.08-12.66-2-25.58-2.64-38.32Zm.06-115.13c.63-12.68,1.53-25.6,2.65-38.39L776.08,112.07ZM-254,259.5,776.08,112.07-248.68,297.8C-250.67,285.12-252.43,272.22-254,259.5Zm.12-268.67c1.54-12.71,3.36-25.6,5.35-38.28L776.09,112.07ZM-242,336.11l1018.08-224-1010,262.19C-236.81,361.65-239.51,348.81-242,336.11Zm.24-421.86c2.46-12.69,5.19-25.53,8.11-38.16l1009.73,236Zm17.35,498.13L776.08,112.07l-989.52,338.3c-3.88-12.59-7.56-25.37-11-38Zm.31-574.4c3.41-12.61,7.11-25.39,11-38L776.09,112.07ZM-201,488.26,776.08,112.07-187,525.9C-191.89,513.51-196.56,500.85-201,488.26Zm.37-726.1c4.4-12.59,9.11-25.29,14-37.73L776.08,112.07Zm29.09,801.28,947.6-451.37L-154.4,600.76c-5.93-12.28-11.69-24.85-17.11-37.32Zm.45-876.49c5.46-12.49,11.24-25,17.17-37.32l930,462.44Zm35.41,950.87L776.08,112.07-115.21,674.59c-7-12.13-13.94-24.5-20.44-36.77Zm.55-1025.24c6.57-12.33,13.47-24.71,20.54-36.79L776.09,112.07Zm42.2,1098.54,869-599-845,635.14C-77.13,735.37-85.22,723.22-92.93,711.12Zm.62-1171.83c7.79-12.15,15.91-24.3,24.12-36.11L776.09,112.07ZM-42.9,783l819-670.9-791,706.2C-24.42,806.74-33.85,794.85-42.9,783Zm.82-1315.53c9.08-12,18.54-23.85,28.08-35.3l790.09,679.9ZM15.27,853,776.09,112,47.69,887.22l-61,64V920.68S-29.18,905.26-32,902.18C-34.62,899.39,15.27,853,15.27,853ZM16.2-602.61l-36.11-31.13,5.39-70,63.16,67L776.08,112.07ZM82.43,920.72,776.08,112.07,119.68,953.39,18.19,1081.56-17.43,1034Zm1-1590.93L-22-777.54l19-91.64,123.74,166.3,655.29,815ZM159.61,985.17l616.48-873.1L202.36,1015.85l-44.17,72.59-65.44-13.49Zm1.19-1719.8L47.45-871.43l91.3.11,64.88,106.07L776.09,112.07Zm87.35,1779.87L776.08,112.07l-479,961C280.54,1064.28,264.08,1054.91,248.15,1045.24Zm1.33-1839.85L205-869.77l71.91,2.32,21.58,45,477.6,934.52Zm99.8,1893.77,426.8-987.09L404.9,1123c-18.74-7.37-37.43-15.4-55.61-23.84Zm1.55-1947.59-11.64-24.32s53.53,5.94,67.38.49L776.09,112.07ZM463.9,1144.39,776.08,112.07l-250,1050.65C505.29,1157.27,484.35,1151.1,463.9,1144.39Zm7.7-2018.65c20.46-6.68,43.27,0,64.17-5.38L776.09,112.07ZM591.27,1177.59,776.08,112.07,658.89,1188.59C636.33,1185.65,613.6,1182,591.27,1177.59Zm2-2104.11c22.26-4.32,45-8,67.53-10.87L776.09,112.07ZM728,1195.37l48.08-1083.3,22,1085.65C774.77,1197.68,751.18,1196.89,728,1195.37ZM730-944c23.17-1.48,46.73-2.23,70-2.23h4.13l-28,1058.3ZM776.08,112.07l161.34,1077c-22.91,2.9-46.25,5.1-69.33,6.53Zm0,0,98-1055.86c23,1.55,46.31,3.88,69.09,6.89L776.08,112.1Zm0,0,294.24,1051.6c-21.53,5.55-43.51,10.48-65.36,14.67Zm0,0L1010.7-925.78c21.83,4.31,43.73,9.35,65.13,15Zm0,0,415.84,1012.26c-19.38,7.61-39.29,14.73-59.18,21.2Zm0,0L1137.95-892.37c19.78,6.54,39.61,13.75,58.91,21.42L776.09,112Zm0,0,524.08,962.56c-17.11,9.08-34.76,17.8-52.44,26Zm0,0L1252.33-847l29.55-55,66.68,12.47-44.08,68.66-528.41,933Zm0,0,619.13,905.48,25,36.27-56.75-4.07-14.18-2.89Zm0,0,577.27-905,84.27-119.76,44.32,33.35-83,115.81Zm0,0,702.17,843.14,6.17,17.14,1.66,81.46-48-66.87Zm0,0L1441.69-732.8l37.76-44.48,2,76.24Zm0,0,774.43,777.08c-11.35,11.39-23.09,22.64-34.87,33.43Zm0,0,742.61-780.4c11.75,10.84,23.43,22.12,34.69,33.52Zm0,0,837.23,708.16C1603.56,832,1593.37,843.65,1583,855Zm0,0L1585.72-600.6c10.21,11.31,20.32,23,30.05,34.75Zm0,0,891.49,637.18c-8.4,12-17.18,24-26.13,35.74Zm0,0,867.65-642.61c8.88,11.72,17.62,23.76,26,35.77Zm0,0,938,564.6c-7.13,12.22-14.67,24.5-22.35,36.5Zm0,0,917.63-570.71c7.6,12,15.07,24.24,22.17,36.5Zm0,0,977.43,490.76c-6,12.4-12.35,24.88-18.87,37.11Zm0,0L1736.3-385.36c6.44,12.15,12.74,24.65,18.73,37.12L776,112.07Zm0,0,1010.21,416c-4.94,12.56-10.2,25.17-15.6,37.49Zm0,0,996-423c5.34,12.31,10.56,24.94,15.46,37.52Zm0,0L1812.87,452.54c-3.93,12.69-8.15,25.42-12.52,37.85Zm0,0,1025.39-347.8c4.33,12.45,8.5,25.18,12.39,37.86Zm0,0,1057.43,264.4c-3,12.74-6.19,25.56-9.6,38.1Zm0,0,1048.7-272c3.34,12.5,6.54,25.33,9.48,38.15Zm0,0L1848.45,300c-2,12.78-4.31,25.65-6.78,38.27Zm0,0L1842.3-83.56c2.44,12.73,4.69,25.61,6.65,38.28Zm0,0L1857.87,223.3c-1.1,12.68-2.46,25.59-4,38.37Zm0,0L1854.24-7c1.51,12.67,2.83,25.58,3.93,38.38Zm0,0,1085.86,34.49c-.24,12.72-.71,25.63-1.36,38.35Zm0,0L1860.74,69.78c.63,12.82,1.06,25.73,1.26,38.4Z"/></svg>
