<?xml version="1.0" encoding="utf-8"?>
<!-- Generator: Adobe Illustrator 16.0.0, SVG Export Plug-In . SVG Version: 6.00 Build 0)  -->
<!DOCTYPE svg PUBLIC "-//W3C//DTD SVG 1.1//EN" "http://www.w3.org/Graphics/SVG/1.1/DTD/svg11.dtd">
<svg version="1.1" id="Layer_1" xmlns="http://www.w3.org/2000/svg" xmlns:xlink="http://www.w3.org/1999/xlink" x="0px" y="0px"
	 width="760.966px" height="321.788px" viewBox="0 0 760.966 321.788" enable-background="new 0 0 760.966 321.788"
	 xml:space="preserve">
<path fill="#EB2227" d="M760.966,296.558c-0.92-3.348-2.322-6.554-3.844-9.688c-1.852-4.056-5.818-13.719-5.818-13.719
	c-0.42-1.443-0.672-2.926-0.721-4.417c-3.868-1.389-7.706-2.862-11.509-4.406l-34.693-97.804
	c-0.374-14.745-3.655-29.436-9.463-43.114c-6.381-14.93-15.824-28.857-28.467-39.733c-7.041-6.005-15.107-11.015-23.975-14.235
	c-9.586-3.457-20.176-4.934-30.32-3.148c-9.785,1.952-18.637,6.867-26.229,12.904c-13.395,10.734-23.389,24.888-30.289,40.074
	c-7.778,17.261-11.444,36.349-9.902,55.077l-18.719,43.556c-15.325-10.928-29.577-23.219-42.474-36.646
	c-0.574-12.855-1.17-25.712-1.717-38.574c3.574-0.463,7.166-0.983,10.785-1.021c1.172,0.08,2.484,0.061,3.48,0.757
	c0.928,0.659,0.49,2.217,1.707,2.632c2.738,1.242,5.904,1.144,8.873,1.091c6.51-0.403,13.506-2.208,17.848-7.122
	c-6.951,1.453-14.293,0.913-21.137-0.811c-2.93-0.854-6.594-2.443-6.621-5.829c-0.705-0.663-1.467-1.297-2.412-1.614
	c-4.166-1.544-8.707-1.736-13.129-1.814c-0.135-3.84-0.205-7.684-0.602-11.512c1.604-0.346,3.25-1.34,3.471-3.012
	c0.596-2.5-2.402-4.895-4.893-3.844c-2.107,0.682-3.064,3.275-1.887,5.057c0.586,0.98,1.727,1.408,2.789,1.775
	c-1.387,21.258-2.686,42.52-4.012,63.781c-5.123,4.593-10.33,9.101-15.566,13.58c-11.779-23.15-23.856-46.165-36.62-68.842
	c-9.394-16.645-19.183-33.096-29.764-49.087c-9.283-13.997-19.188-27.659-30.374-40.364c-6.84-7.709-14.171-15.078-22.453-21.417
	c-8.237-6.271-17.605-11.526-28.161-13.306c-4.498-0.71-9.319-0.972-13.59,1.028h0.02c-7.542,3-13.67,8.221-19.499,13.552
	c-13.219,12.61-24.526,26.751-35.446,41.158c-20.605,27.567-39.382,56.259-57.519,85.325c-16.259-19.25-40.479-32.327-66.342-35.481
	c-0.005-1.828,0-3.669-0.015-5.491c0.761-0.066,1.522-0.126,2.283-0.173c-0.626-1.559-1.296-3.106-1.892-4.674
	c-5.609-1.8-10.746-4.896-14.727-9.048c-0.065-0.654-0.131-1.31-0.196-1.959c0.841-0.019,1.688-0.034,2.529-0.039
	c0.15,0.266,0.446,0.797,0.591,1.057c1.792-0.109,3.351-0.977,4.512-2.25c-1.537,0.219-3.155,0.464-4.602-0.218
	c-0.015-0.354-0.051-1.065-0.065-1.421c-1.187-0.279-2.404-0.396-3.621-0.42c0.336-0.507,0.676-1.014,1.016-1.521
	c-0.385-0.44-0.751-0.985-1.427-1.004c-0.366,0.317-0.726,0.648-1.077,0.985c0.211,0.277,0.626,0.838,0.837,1.117
	c-0.201,1.846-0.356,3.693-0.386,5.551c-4.131,4.105-9.359,7.079-14.837,9.29c-0.636,1.638-1.692,3.082-2.393,4.692
	c0.731-0.067,1.462-0.123,2.193-0.174c-0.04,2.087-0.04,4.175-0.004,6.264c-24.611,3.905-47.364,16.857-62.801,35.364
	c-3.205-1.782-6.159-3.961-8.658-6.569c-0.051-0.615-0.101-1.221-0.15-1.832c0.816-0.053,1.632-0.104,2.454-0.143
	c0.17,0.28,0.505,0.834,0.676,1.109c1.722-0.195,3.359-0.892,4.401-2.251c-1.507,0.165-3.089,0.427-4.506-0.249
	c-0.02-0.36-0.07-1.08-0.095-1.437c-1.147-0.227-2.319-0.312-3.486-0.364c0.316-0.535,0.631-1.064,0.952-1.592
	c-0.356-0.42-0.772-0.762-1.262-1.018c-0.457,0.289-0.877,0.62-1.263,0.994c0.201,0.279,0.591,0.844,0.792,1.123
	c-0.135,1.881-0.261,3.764-0.36,5.649c-4.181,4.044-9.359,7.045-14.832,9.262c-0.642,1.643-1.723,3.088-2.359,4.735
	c0.551-0.07,1.647-0.218,2.194-0.293c0.035,3.59-0.031,7.173,0.04,10.764c-0.2,0.108-0.596,0.326-0.796,0.436
	c0.48,4,0.496,8.042,0.961,12.037c2.304,1.085,4.782,1.871,7.181,2.779c-5.798,19.324-5.308,40.374,1.948,59.286
	c-2.509,1.553-5.223,2.737-7.907,3.974c-0.917,1.538-1.787,3.116-2.529,4.744c0.727-0.071,1.452-0.137,2.174-0.208
	c-0.015,3.296,0.02,6.591,0,9.888c0.16,0.699-0.691,1.098-0.691,1.756c0.295,3.863,0.641,7.733,0.861,11.606
	c5.177,1.966,10.351,3.931,15.528,5.89c4.361-1.708,8.777-3.294,13.109-5.075c2.424,2.528,4.972,4.958,7.681,7.217
	c-10.5,15.593-31.449,47.298-31.449,47.298h749.331c-0.289-6.999-0.278-19.271-0.509-26.269
	C758.398,296.562,759.675,296.576,760.966,296.558z M204.302,132.786c-0.085-1.112-1.602-0.711-2.353-0.9
	c11.682-18.803,23.78-37.384,36.448-55.611c-9.253,40.744-18.647,81.462-27.826,122.224c-0.571-7.122-1.537-14.257-3.71-21.114
	c2.904-1.17,5.853-2.235,8.763-3.395c0.39-3.789,0.616-7.587,0.992-11.374c0.325-0.812-1.027-0.968-0.711-1.791
	c0.02-3.324,0.01-6.653,0.01-9.977c0.686,0.028,1.372,0.046,2.062,0.056c-0.16-1.704-1.216-3.177-1.737-4.791
	c-5.608-1.881-10.825-4.936-14.802-9.159c-0.034-0.61-0.07-1.222-0.1-1.828c0.851-0.051,1.708-0.071,2.563-0.042
	c0.145,0.251,0.43,0.754,0.571,0.998c1.743-0.15,3.545-0.861,4.437-2.367C207.477,134.042,204.613,134.805,204.302,132.786z
	 M199.841,135.51c0.265,1.491-1.046,2.409-2.193,3.134C198.284,137.54,198.99,136.476,199.841,135.51z M187.062,149.635
	c0.727,0.899,1.402,1.836,2.038,2.803c0.736-1.084,1.527-2.125,2.66-2.874c0.585,0.427,1.101,1.099,1.902,1.174
	c1.027,0.204,1.773-0.595,2.534-1.103c1.107,1.552,3.305,1.332,4.447-0.057c0.606,0.502,1.282,0.933,2.008,1.278
	c0.756-0.316,1.482-0.705,2.078-1.256c0.602,0.427,1.137,1.084,1.953,1.143c1.012,0.188,1.732-0.615,2.424-1.18
	c0.646,0.497,1.226,1.307,2.163,1.27c0.966,0.061,1.607-0.749,2.252-1.297c0.477,0.363,0.952,0.728,1.432,1.088
	c-0.024,3.708,0.005,7.417-0.015,11.125c-9.784-0.053-19.573-0.067-29.362,0.008c-0.045-3.75,0.02-7.496-0.031-11.242
	C185.926,150.293,186.682,149.853,187.062,149.635z M210.251,259.735c-9.794-0.071-19.589-0.042-29.378-0.013
	c-0.01-3.761,0.03-7.526-0.035-11.286c0.596-0.312,1.187-0.614,1.788-0.918c0.585,0.602,1.296,1.07,2.048,1.479
	c0.891-0.36,1.732-0.831,2.458-1.449c1.097,1.424,3.225,1.42,4.341,0.019c0.67,0.479,1.302,1.184,2.238,1.117
	c0.916-0.009,1.582-0.668,2.293-1.117c0.615,0.444,1.221,0.96,2.018,1.098c0.831-0.094,1.452-0.634,2.048-1.131
	c1.127,1.396,3.245,1.477,4.372,0.01c0.641,0.623,1.427,1.073,2.273,1.415c0.781-0.417,1.512-0.904,2.178-1.468
	c0.45,0.327,0.906,0.653,1.367,0.985C210.231,252.227,210.251,255.98,210.251,259.735z M123.234,283.317
	c0.727,0.023,1.448,0,2.168-0.075c-0.396-1.671-1.237-3.195-1.853-4.792c-5.057-1.582-9.674-4.314-13.499-7.81
	c-0.02-1.112-0.025-2.22-0.02-3.332c0.911-0.167,1.392,0.444,1.767,1.125c1.698-0.056,3.496-0.79,4.357-2.229
	c-1.483,0.193-3.205,0.677-4.472-0.346c-0.025-0.3-0.07-0.896-0.095-1.189c-0.531-0.162-1.056-0.321-1.577-0.487
	c0.05-15.636,0.035-31.276,0.01-46.917c1.276-0.176,2.514-0.542,3.73-0.948c12.603,20.58,25.131,41.202,37.765,61.768
	c-8.783,4.531-18.352,7.822-28.261,9.248C123.31,285.993,123.315,284.654,123.234,283.317z M122.354,294.072
	c-9.794-0.011-19.594-0.044-29.388,0.013c0.01-3.739-0.015-7.481,0.025-11.217c0.436-0.431,1.082-0.615,1.603-0.929
	c0.581,0.493,1.082,1.18,1.917,1.299c1.066,0.127,1.828-0.674,2.579-1.242c0.631,0.47,1.217,1.08,2.062,1.194
	c0.962,0.008,1.653-0.687,2.354-1.199c0.62,0.531,1.231,1.176,2.143,1.207c0.936-0.127,1.667-0.724,2.408-1.234
	c0.376,0.335,0.751,0.676,1.132,1.023c1.137,0.198,2.133-0.229,2.884-1.019c0.646,0.511,1.252,1.158,2.159,1.24
	c0.88-0.09,1.537-0.674,2.173-1.194c0.656,0.498,1.276,1.119,2.158,1.217c0.957-0.027,1.628-0.709,2.268-1.281
	c0.516,0.363,1.037,0.728,1.553,1.103C122.338,286.723,122.338,290.397,122.354,294.072z M91.969,283.081
	c0.02,1.383,0.02,2.765,0.005,4.152c-9.555-1.581-18.783-4.749-27.305-9.12c12.578-20.604,25.197-41.183,37.735-61.806
	c1.211,0.422,2.453,0.787,3.74,0.938c-0.03,17.644,0.015,35.289-0.02,52.932c-3.976,3.604-8.763,6.303-13.795,8.368
	c-0.836,1.576-1.948,3.135-2.504,4.862C90.537,283.299,91.253,283.19,91.969,283.081z M61.234,276.276
	c-2.669-1.639-5.343-3.272-7.856-5.115c12.724-18.784,25.342-37.632,38.065-56.411c1.377-1.226,3.255-1.855,4.827-2.859
	c0.826,0.938,1.743,1.794,2.719,2.585C86.401,235.073,73.823,255.678,61.234,276.276z M117.081,214.509
	c0.997-0.795,1.923-1.667,2.769-2.604c1.572,0.979,3.425,1.63,4.827,2.817c12.734,18.785,25.382,37.627,38.075,56.439
	c-2.498,1.839-5.192,3.415-7.791,5.11C142.202,255.759,129.834,235.022,117.081,214.509z M141.651,223.763
	c12.764,6.998,25.557,13.948,38.331,20.938c-0.631,1.445-1.728,2.686-2.148,4.22c0.531-0.065,1.587-0.193,2.118-0.26
	c-0.1,2.088,0.055,4.186-0.075,6.278c-2.985,3.841-6.419,7.377-10.11,10.617C160.458,251.586,150.99,237.711,141.651,223.763z
	 M180.658,271.958c0,3.233,0,6.463,0.005,9.697c-1.453-2.021-2.78-4.119-4.197-6.16C177.859,274.312,179.131,272.99,180.658,271.958
	z M137.149,217.033c-2.894-3.816-5.263-7.994-8.181-11.801c23.098,0.019,46.197,0.019,69.3,0
	c-0.29,11.568-2.999,23.127-8.202,33.605c-1.943,1.422-4.076,2.762-6.344,3.596C168.165,234.027,152.648,225.532,137.149,217.033z
	 M194.137,177.54c2.62,7.742,4.037,15.85,4.171,23.98c-23.875-0.049-47.754-0.038-71.634-0.006
	c-1.052-1.491-2.028-3.021-3.084-4.504c20.224-10.951,40.364-22.051,60.588-33.005c0.12,3.319,0.311,6.659,0.661,9.964
	C187.909,175.225,191.039,176.346,194.137,177.54z M184.388,157.75c0.261,0.517,0.471,1.369,0.015,1.811
	c-20.915,11.481-41.926,22.817-62.821,34.34c-1.102-1.132-2.229-2.24-3.5-3.2c12.328-20.07,24.581-40.181,36.843-60.286
	C166.783,137.242,176.973,146.651,184.388,157.75z M122.018,119.072c10.35,1.502,20.404,4.75,29.573,9.523
	c-12.393,20.03-24.571,40.184-36.883,60.267c-1.498-0.551-3.055-0.952-4.647-1.15c0.005-19.443,0.065-38.887-0.03-58.324
	c3.825-1.658,7.816-2.947,11.647-4.591C121.652,122.885,121.908,120.981,122.018,119.072z M91.478,101.335
	c0.546-0.275,1.087-0.551,1.633-0.824c0.66,0.488,1.246,1.17,2.138,1.269c0.996-0.023,1.708-0.724,2.434-1.269
	c0.606,0.398,1.126,1.107,1.928,1.133c1.006,0.207,1.713-0.588,2.413-1.119c0.651,0.416,1.222,1.174,2.099,1.119
	c1.001,0.154,1.678-0.697,2.453-1.143c0.601,0.478,1.217,1.018,2.028,1.159c0.792-0.146,1.382-0.699,2.063-1.06
	c0.836,0.592,1.712,1.217,2.829,1.074c0.505-0.392,1.016-0.787,1.527-1.174c0.441,0.375,0.881,0.753,1.317,1.136
	c0.556,0.007,1.117,0.015,1.677,0.021c0.456-0.398,0.916-0.797,1.372-1.193c0.356,0.221,1.067,0.671,1.422,0.895
	c0.17,3.74-0.024,7.492,0.075,11.236c-9.809-0.01-19.618-0.048-29.428,0.019C91.494,108.854,91.478,105.095,91.478,101.335z
	 M90.301,119.735c0.181,1.695,0.266,3.4,0.311,5.105c5.177,2.037,10.41,3.934,15.588,5.965c-0.051,18.977-0.016,37.956-0.016,56.935
	c-1.592,0.175-3.144,0.544-4.621,1.126c-12.303-20.077-24.511-40.207-36.859-60.262C72.666,124.392,81.364,121.44,90.301,119.735z
	 M33.644,155.24c7.196-10.028,16.755-18.494,27.671-24.831c12.312,20.083,24.505,40.235,36.883,60.285
	c-1.256,0.966-2.403,2.052-3.475,3.202c-20.385-11.176-40.83-22.257-61.21-33.446C33.625,158.717,33.384,156.955,33.644,155.24z
	 M33.939,164.979c19.559,10.691,39.097,21.426,58.726,32.009c-0.992,1.517-2.043,3.003-3.044,4.514
	c-23.885-0.011-47.765-0.019-71.65,0.004c0.055-7.97,1.483-15.935,3.996-23.533c3.78-1.342,7.476-2.876,11.241-4.239
	C33.544,170.82,33.644,167.894,33.939,164.979z M3.095,161.392c0.065-3.726,0.04-7.448,0.015-11.174
	c0.546-0.313,1.087-0.626,1.627-0.943c0.696,0.536,1.322,1.297,2.308,1.297c0.937-0.037,1.608-0.676,2.218-1.268
	c0.707,0.449,1.312,1.207,2.248,1.201c0.912,0.062,1.518-0.685,2.148-1.178c0.706,0.455,1.352,1.268,2.304,1.178
	c0.936,0.006,1.542-0.732,2.223-1.222c0.711,0.464,1.347,1.299,2.329,1.114c0.746-0.066,1.231-0.726,1.807-1.1
	c0.671,0.484,1.267,1.242,2.204,1.213c0.906-0.009,1.512-0.738,2.198-1.192c0.526,0.449,0.976,1.084,1.748,1.169
	c1.106,0.36,1.888-0.635,2.603-1.236c0.481,0.375,1.052,0.659,1.452,1.123c0.095,3.683-0.095,7.367,0.041,11.057
	C22.744,161.383,12.919,161.454,3.095,161.392z M33.609,255.187c-9.834-0.045-19.673,0.041-29.513-0.038
	c0.081-3.733,0.01-7.469,0.035-11.201c0.586-0.303,1.172-0.61,1.753-0.913c0.636,0.506,1.171,1.299,2.107,1.284
	c1.022,0.075,1.693-0.696,2.389-1.26c0.716,0.566,1.438,1.278,2.458,1.229c0.796-0.155,1.342-0.761,1.933-1.225
	c0.651,0.495,1.242,1.244,2.173,1.211c0.947,0.011,1.608-0.695,2.284-1.207c0.721,0.436,1.352,1.259,2.323,1.094
	c0.951-0.015,1.733-1.662,2.529-0.559c1.102,1.227,2.744,0.473,3.665-0.521c0.556,0.402,1.006,1.07,1.757,1.171
	c1.107,0.341,1.889-0.627,2.609-1.227c0.5,0.35,1.001,0.695,1.507,1.05C33.569,247.779,33.584,251.481,33.609,255.187z
	 M23.8,233.743c-0.821-1.724-1.402-3.546-2.028-5.342c0.601,0.2,1.062,0.579,1.382,1.138c1.667-0.124,3.41-0.815,4.216-2.282
	c-1.458,0.341-3.06,0.521-4.427-0.205c-0.005-0.33-0.01-1.004-0.015-1.334c-0.691-0.143-1.387-0.285-2.078-0.407
	c-1.777-6.554-2.904-13.303-2.929-20.073c23.074,0.014,46.152,0.01,69.226,0.004c-2.904,3.821-5.248,8.042-8.198,11.811
	c-14.501,8.018-29.152,15.811-43.608,23.902c-0.145-0.439-0.286-0.88-0.43-1.311C30.95,238.186,27,236.438,23.8,233.743z
	 M34.486,252.613c0.024-2.32,0.01-4.64,0.004-6.956c13.37-7.306,26.75-14.612,40.129-21.901
	c-9.379,13.946-18.823,27.854-28.161,41.823C42.007,261.667,37.996,257.307,34.486,252.613z M28.461,312.95
	c-1.076-0.003-2.153,0.02-3.229,0.053c7.105-10.702,14.426-21.274,21.476-32.005c7.446,5.08,15.458,9.465,24.05,12.576
	c6.71,2.553,13.75,4.21,20.846,5.455c0.195,2.478,0.245,4.968,0.565,7.434c5.197,1.819,10.29,3.898,15.458,5.798
	c5.107-1.91,10.155-3.969,15.297-5.788c0.376-2.452,0.38-4.933,0.671-7.387c16.574-2.282,32.387-8.714,45.836-18.106
	c7.13,10.7,14.366,21.341,21.546,32.009C136.805,312.909,82.63,312.98,28.461,312.95z M189.446,290.619
	c-0.306,0.962-0.146,2.121-0.881,2.913c-0.677-1.227-1.573-2.33-2.293-3.532c-0.141-5.252,0.04-10.508-0.05-15.76
	c2.147,0.866,4.366,1.566,6.474,2.519C191.459,281.343,190.552,286.008,189.446,290.619z M241.261,92.172
	c-0.109,23.993,0.031,47.987-0.085,71.981c-0.125,30.975-0.215,61.942-0.125,92.912c-9.168,4.535-18.717,8.377-28.461,11.658
	c-0.175,10.513-7.101,19.254-12.542,27.92c3.815-0.133,7.666-0.379,11.366-1.335c-1.417,8.381-2.895,16.754-4.346,25.124
	c-0.782-0.521-1.147-1.382-1.658-2.102c-4.106-6.085-8.202-12.18-12.318-18.255c1.798-7.742,3.66-15.471,5.252-23.244
	c4.201-1.701,8.462-3.273,12.699-4.894c0.32-4.011,0.606-8.027,1.016-12.023l-0.701-0.32c-0.16-3.576,0.016-7.165-0.085-10.746
	c0.701,0.011,1.408,0.021,2.113,0.033c-0.345-1.704-1.062-3.366-1.923-4.871c-1.732-0.674-3.51-1.273-5.137-2.165
	c4.306-17.966,8.232-36.018,12.418-54.012c4.842-21.338,9.734-42.659,14.582-63.993c2.694-11.464,5.122-22.984,7.946-34.416
	C241.857,90.269,241.016,91.243,241.261,92.172z M246.569,254.318c0.115-26.896,0.295-53.798,0.255-80.694
	c0.02-26.522-0.06-53.039,0.105-79.559c0.036-2.136-0.135-4.281,0.105-6.411c9.719,40.819,19.603,81.604,29.362,122.418
	c1.798,7.254,3.436,14.547,5.288,21.786C270.684,240.273,258.932,247.812,246.569,254.318z M286.452,228.189
	c-4.602-19.983-9.579-39.892-14.286-59.854c-8.247-34.195-16.424-68.402-24.666-102.596c-0.185-0.857-0.616-1.857,0.19-2.557
	c11.702-15.831,23.665-31.681,38.326-45.217c5.222-4.528,10.781-9.201,17.71-11.157c-0.01,69.03-0.005,138.062,0.21,207.094
	C298.22,218.78,292.471,223.644,286.452,228.189z M320.256,147.717c2.389-0.241,3.815-3.172,2.179-4.93
	c-1.507-2.136-5.498-1.161-5.633,1.422c-0.38,1.652,0.981,3.167,2.644,3.493c-0.321,9.116-1.057,18.222-1.588,27.332
	c-0.671,9.452-1.071,18.923-1.827,28.366c-2.273,1.832-4.297,3.92-6.615,5.706c-0.005-52.563,0.045-105.125-0.121-157.682
	c-0.045-15.008,0.025-30.008-0.04-45.011c9.975,0.385,19.088,5.068,26.944,10.571c13.665,9.787,24.681,22.417,34.861,35.35
	c2.689,3.451,5.302,6.961,7.871,10.497c-10.009,34.881-19.999,69.771-30.008,104.65c-4.546-0.42-9.499-0.861-13.254-3.565
	c-1.672-0.945-0.941-3.309-2.729-4.096c-3.761-1.851-8.177-1.841-12.313-2.035C320.442,154.431,320.292,151.073,320.256,147.717z
	 M322.479,203.367c-0.346-11.224-0.942-22.442-1.367-33.66c3.926-0.165,7.947-1.453,11.832-0.443
	c1.507,0.308,0.707,2.433,2.274,2.728c3.896,1.396,8.237,0.979,12.283,0.443c-4.106,14.367-8.367,28.701-12.293,43.115
	C330.801,211.647,326.636,207.505,322.479,203.367z M339.905,219.807c4.512-16.535,9.398-32.994,14.101-49.487
	c1.397-1.085,3.015-1.971,4.106-3.386c-1.097,0.232-2.188,0.449-3.294,0.554c8.052-28.342,16.298-56.635,24.29-84.99
	c0.155,50.739,0.2,101.477,0.175,152.223c0.025,4.347-0.055,8.693,0.051,13.045C365.212,239.763,352.068,230.281,339.905,219.807z
	 M384.92,245.848c-0.02-54.438-0.061-108.899,0-163.317l0.16-0.416c4.862,16.824,10.13,33.549,15.127,50.346
	c5.463,17.979,10.881,35.97,16.339,53.948c3.5,11.778,7.21,23.503,10.6,35.309C413.782,230.803,399.782,239.104,384.92,245.848z
	 M432.234,218.013c-0.071-0.009-0.216-0.023-0.286-0.033c-10.23-34.066-20.61-68.09-30.865-102.146
	c-3.811-12.288-7.325-24.657-11.286-36.901c0.085,0.018,0.255,0.055,0.345,0.075c17.481,26.64,32.948,54.398,47.825,82.403
	c6.495,12.331,12.955,24.675,19.233,37.105C449.033,205.189,440.841,211.848,432.234,218.013z M705.833,187.516l24.315,73.018
	c-4.858-1.961-9.553-4.272-14.211-6.625L705.833,187.516z M561.77,119.36c4.32-9.119,9.818-17.762,16.572-25.461
	c6.154-6.998,13.389-13.277,21.842-17.715c5.475-2.846,11.518-4.883,17.787-5.279c10.004-0.522,20.037,1.895,28.896,6.234
	c14.586,7.179,26.068,19.053,34.455,32.269c11.738,18.681,17.941,40.5,17.416,62.241c-0.224,20.901-7.5,41.851-21.237,58.318
	c-0.686-0.521-1.363-1.051-2.027-1.585l-4.592-3.608c-8.072-6.743-15.859-13.803-23.115-21.328c-0.42-2.724-0.234-5.502-0.529-8.238
	l-0.156-6.185c-0.266-6.444-0.625-12.885-0.791-19.335c3.795-0.161,7.625-1.302,11.406-0.553c1.857,0.15,1.146,2.628,2.904,2.91
	c3.455,1.091,7.207,0.868,10.77,0.427c4.613-0.725,9.445-2.301,12.49-5.847c-5.127,1.021-10.441,0.734-15.578-0.052
	c-2.654-0.488-5.418-1.152-7.576-2.766c-1.086-0.74-1.232-2.045-1.678-3.137c-0.656-0.87-1.777-1.269-2.789-1.624
	c-3.395-0.993-6.975-1.142-10.496-1.292c-0.285-3.315-0.314-6.647-0.395-9.973c1.342-0.365,2.578-1.228,2.879-2.581
	c0.617-2.477-2.908-4.739-5.053-3.021c-2.379,1.492-1.301,5.157,1.438,5.584c-0.686,12.932-1.588,25.854-2.359,38.781l-0.318,5.935
	c-0.291,3.343-0.518,6.694-0.646,10.052c0.07,0.744-0.596,1.209-1.082,1.677c-1.162,1.023-2.357,2.003-3.475,3.062l-5.783,5.072
	c-8.533,7.222-17.076,14.472-26.188,21.035l-5.264,3.817c-2.963,2.115-5.985,4.158-9.053,6.137c-3.018-2.394-5.928-4.91-8.696-7.574
	c-15.213-14.327-25.857-33.084-29.264-53.186C548.684,161.24,552.51,139.036,561.77,119.36z M546.789,182.788h-0.386l0.146-1.465
	C546.625,181.812,546.707,182.3,546.789,182.788z M531.986,221.323l-0.821-0.562l11.295-26.058l-5.837,29.651
	C535.069,223.354,533.52,222.349,531.986,221.323z M559.224,237.485l-5.047-2.704c-4.19-2.268-8.298-4.665-12.344-7.151
	l6.593-37.083c0.035,0.139,0.062,0.279,0.098,0.418c4.211,16.516,13.074,31.867,25.098,44.455
	c3.722,3.908,7.721,7.562,11.934,10.979c-1.089,0.666-2.178,1.332-3.278,1.98C574.466,245,566.744,241.419,559.224,237.485z
	 M695.162,242.139c-4.115-2.42-8.012-5.175-11.883-7.927l-1.306-0.957c9.471-11.454,16.136-24.94,19.553-39.113l7.228,56.05
	c-1.295-0.718-2.599-1.418-3.861-2.176L695.162,242.139z"/>
<g>
</g>
<g>
</g>
<g>
</g>
<g>
</g>
<g>
</g>
<g>
</g>
<g>
</g>
<g>
</g>
<g>
</g>
<g>
</g>
<g>
</g>
<g>
</g>
<g>
</g>
<g>
</g>
<g>
</g>
</svg>
